<svg width="22" height="26" viewBox="0 0 22 26" fill="none" xmlns="http://www.w3.org/2000/svg">
<path d="M21.94 19.448C21.94 20.984 21.52 22.232 20.68 23.192C19.864 24.152 18.76 24.86 17.368 25.316C15.976 25.772 14.44 26 12.76 26H0.196V0.439999H15.028C16.228 0.439999 17.26 0.763999 18.124 1.412C19.012 2.036 19.684 2.852 20.14 3.86C20.62 4.868 20.86 5.912 20.86 6.992C20.86 8.168 20.548 9.308 19.924 10.412C19.324 11.516 18.412 12.344 17.188 12.896C18.652 13.328 19.804 14.084 20.644 15.164C21.508 16.244 21.94 17.672 21.94 19.448ZM7.216 6.416V10.34H12.004C12.484 10.34 12.916 10.208 13.3 9.944C13.708 9.68 13.912 9.152 13.912 8.36C13.912 7.664 13.744 7.172 13.408 6.884C13.072 6.572 12.676 6.416 12.22 6.416H7.216ZM14.812 18.008C14.812 17.384 14.644 16.868 14.308 16.46C13.972 16.028 13.54 15.812 13.012 15.812H7.216V20.096H12.76C13.336 20.096 13.816 19.916 14.2 19.556C14.608 19.196 14.812 18.68 14.812 18.008Z" fill="#324E97"/>
</svg>
