<svg width="25" height="27" viewBox="0 0 25 27" fill="none" xmlns="http://www.w3.org/2000/svg">
<path d="M0.792 13.004C0.792 11.444 1.08 9.92 1.656 8.432C2.256 6.92 3.12 5.552 4.248 4.328C5.376 3.104 6.744 2.132 8.352 1.412C9.984 0.667999 11.82 0.295998 13.86 0.295998C16.308 0.295998 18.444 0.811999 20.268 1.844C22.092 2.852 23.448 4.196 24.336 5.876L18.972 9.692C18.66 8.852 18.204 8.204 17.604 7.748C17.028 7.292 16.392 6.98 15.696 6.812C15.024 6.62 14.364 6.524 13.716 6.524C12.372 6.524 11.268 6.86 10.404 7.532C9.564 8.204 8.94 9.056 8.532 10.088C8.124 11.096 7.92 12.14 7.92 13.22C7.92 14.396 8.148 15.5 8.604 16.532C9.084 17.564 9.756 18.404 10.62 19.052C11.508 19.676 12.564 19.988 13.788 19.988C14.436 19.988 15.096 19.892 15.768 19.7C16.44 19.484 17.052 19.148 17.604 18.692C18.156 18.236 18.576 17.624 18.864 16.856L24.588 20.276C24.084 21.524 23.244 22.592 22.068 23.48C20.892 24.368 19.56 25.052 18.072 25.532C16.584 25.988 15.108 26.216 13.644 26.216C11.748 26.216 10.008 25.844 8.424 25.1C6.864 24.332 5.508 23.324 4.356 22.076C3.228 20.804 2.352 19.388 1.728 17.828C1.104 16.244 0.792 14.636 0.792 13.004Z" fill="#324E97"/>
</svg>
