<svg width="23" height="26" viewBox="0 0 23 26" fill="none" xmlns="http://www.w3.org/2000/svg">
<path d="M0.196 26V0.439999H10.024C12.856 0.439999 15.22 1.016 17.116 2.168C19.036 3.296 20.476 4.832 21.436 6.776C22.42 8.696 22.912 10.832 22.912 13.184C22.912 15.776 22.372 18.032 21.292 19.952C20.236 21.872 18.736 23.36 16.792 24.416C14.872 25.472 12.616 26 10.024 26H0.196ZM15.784 13.184C15.784 11.192 15.268 9.596 14.236 8.396C13.228 7.172 11.824 6.56 10.024 6.56H7.216V19.88H10.024C11.872 19.88 13.288 19.244 14.272 17.972C15.28 16.7 15.784 15.104 15.784 13.184Z" fill="#324E97"/>
</svg>
