<svg width="17" height="27" viewBox="0 0 17 27" fill="none" xmlns="http://www.w3.org/2000/svg">
<path d="M1.512 19.088C1.656 19.184 2.112 19.388 2.88 19.7C3.648 20.012 4.548 20.168 5.58 20.168C6.588 20.168 7.332 19.952 7.812 19.52C8.292 19.064 8.604 18.344 8.748 17.36C8.916 16.352 9 15.044 9 13.436V0.439999H16.02V13.436C16.02 15.38 15.9 17.144 15.66 18.728C15.444 20.312 14.988 21.68 14.292 22.832C13.596 23.984 12.552 24.872 11.16 25.496C9.768 26.096 7.908 26.396 5.58 26.396C3.42 26.396 1.572 25.868 0.036 24.812L1.512 19.088Z" fill="#324E97"/>
</svg>
