<svg id="Layer_1" enable-background="new 0 0 512.004 512.004" height="512" viewBox="0 0 512.004 512.004" width="512" xmlns="http://www.w3.org/2000/svg"><path d="m461.002 194v2c0 44.112-35.888 80-80 80h-103v41c0 11.046-8.954 20-20 20s-20-8.954-20-20v-41h-148v41c0 11.046-8.954 20-20 20s-20-8.954-20-20v-123c0-11.046 8.954-20 20-20s20 8.954 20 20v42h148v-42c0-11.046 8.954-20 20-20s20 8.954 20 20v42h103c22.056 0 40-17.944 40-40v-2c0-11.046 8.954-20 20-20s20 8.954 20 20zm-461-124c0-38.598 31.402-70 70-70s70 31.402 70 70-31.402 70-70 70-70-31.402-70-70zm40 0c0 16.542 13.458 30 30 30s30-13.458 30-30-13.458-30-30-30-30 13.458-30 30zm147 0c0-38.598 31.402-70 70-70s70 31.402 70 70-31.402 70-70 70-70-31.402-70-70zm40 0c0 16.542 13.458 30 30 30s30-13.458 30-30-13.458-30-30-30-30 13.458-30 30zm-87 372c0 38.598-31.402 70-70 70s-70-31.402-70-70 31.402-70 70-70 70 31.402 70 70zm-40 0c0-16.542-13.458-30-30-30s-30 13.458-30 30 13.458 30 30 30 30-13.458 30-30zm227 0c0 38.598-31.402 70-70 70s-70-31.402-70-70 31.402-70 70-70 70 31.402 70 70zm-40 0c0-16.542-13.458-30-30-30s-30 13.458-30 30 13.458 30 30 30 30-13.458 30-30zm225-372c0 38.598-31.402 70-70 70s-70-31.402-70-70 31.402-70 70-70 70 31.402 70 70zm-40 0c0-16.542-13.458-30-30-30s-30 13.458-30 30 13.458 30 30 30 30-13.458 30-30zm13.29 375.877c16.161-11.666 26.709-30.647 26.709-52.057 0-35.19-28.63-63.82-63.82-63.82-34.286 0-62.18 27.894-62.18 62.18v99.82c0 11.046 8.954 20 20 20s20-8.954 20-20v-34h20.463l22.846 43.328c3.583 6.795 10.525 10.676 17.708 10.676 3.145 0 6.336-.744 9.311-2.312 9.771-5.152 13.515-17.249 8.363-27.02zm-59.29-53.697c0-12.23 9.95-22.18 22.18-22.18 13.135 0 23.82 10.686 23.82 23.82 0 13.333-10.847 24.18-24.18 24.18h-21.82z"/></svg>