<svg width="18" height="27" viewBox="0 0 18 27" fill="none" xmlns="http://www.w3.org/2000/svg">
<path d="M13.5 14.9805H4.80434C4.4216 14.9805 4.11086 15.2905 4.11086 15.674C4.11086 16.0575 4.4216 16.3675 4.80434 16.3675H13.5C13.8834 16.3675 14.1935 16.0574 14.1935 15.674C14.1935 15.2906 13.8834 14.9805 13.5 14.9805Z" fill="#324E97" stroke="#324E97" stroke-width="0.3"/>
<path d="M13.5 18.2414H4.80434C4.4216 18.2414 4.11086 18.5514 4.11086 18.9348C4.11086 19.3183 4.4216 19.6283 4.80434 19.6283H13.5C13.8834 19.6283 14.1935 19.3182 14.1935 18.9348C14.1935 18.5514 13.8834 18.2414 13.5 18.2414Z" fill="#324E97" stroke="#324E97" stroke-width="0.3"/>
<path d="M13.5 21.5022H4.80434C4.4216 21.5022 4.11086 21.8122 4.11086 22.1957C4.11086 22.5792 4.4216 22.8892 4.80434 22.8892H13.5C13.8834 22.8892 14.1935 22.5791 14.1935 22.1957C14.1935 21.8123 13.8834 21.5022 13.5 21.5022Z" fill="#324E97" stroke="#324E97" stroke-width="0.3"/>
<path d="M6.91109 13.0908L6.91131 13.0909L6.9133 13.0918C6.91243 13.0914 6.91164 13.091 6.91109 13.0908ZM6.91109 13.0908C6.91049 13.0905 6.91018 13.0903 6.91036 13.0904L6.91044 13.0905L6.91062 13.0905L6.91109 13.0908ZM16.2174 11.7196H12.0196V2.23696H13.5C13.8834 2.23696 14.1935 1.92686 14.1935 1.54348C14.1935 1.16009 13.8834 0.85 13.5 0.85H11.3261H6.97826H4.80435C4.4216 0.85 4.11087 1.15999 4.11087 1.54348C4.11087 1.92696 4.4216 2.23696 4.80435 2.23696H6.28478V11.7196H2.08696C1.40466 11.7196 0.85 12.2742 0.85 12.9565V23.2826C0.85 24.8638 2.13618 26.15 3.71739 26.15H14.587C16.1682 26.15 17.4543 24.8638 17.4543 23.2826V12.9565C17.4543 12.2742 16.8997 11.7196 16.2174 11.7196ZM7.67174 2.23696H10.6326V11.7196H7.67174V2.23696ZM16.0674 23.2826C16.0674 24.0987 15.403 24.763 14.587 24.763H3.71739C2.90132 24.763 2.23696 24.0987 2.23696 23.2826V13.1065L6.96549 13.106C6.96955 13.1063 6.97381 13.1065 6.97826 13.1065H11.3261C11.3308 13.1065 11.3351 13.1063 11.339 13.106L16.0674 13.1055V23.2826ZM11.3641 13.1018C11.3643 13.1017 11.3641 13.1018 11.3637 13.1019L11.3641 13.1018Z" fill="#324E97" stroke="#324E97" stroke-width="0.3"/>
</svg>
