<svg width="21" height="19" viewBox="0 0 21 19" fill="none" xmlns="http://www.w3.org/2000/svg">
<path d="M20.6807 17.306L15.5038 12.6029C16.8349 11.2207 17.5642 9.48166 17.5642 7.67124C17.5642 3.44139 13.6245 0 8.7821 0C3.93973 0 0 3.44139 0 7.67124C0 11.9011 3.93973 15.3425 8.7821 15.3425C10.6 15.3425 12.3324 14.8635 13.8135 13.9543L19.0297 18.6932C19.2477 18.8909 19.5409 19 19.8552 19C20.1526 19 20.4348 18.9009 20.649 18.7208C21.1042 18.3383 21.1187 17.7039 20.6807 17.306ZM8.7821 2.00119C12.3614 2.00119 15.2732 4.54471 15.2732 7.67124C15.2732 10.7978 12.3614 13.3413 8.7821 13.3413C5.20282 13.3413 2.29098 10.7978 2.29098 7.67124C2.29098 4.54471 5.20282 2.00119 8.7821 2.00119Z" fill="#03174B" fill-opacity="0.6"/>
</svg>
