<svg width="20" height="21" viewBox="0 0 20 21" fill="none" xmlns="http://www.w3.org/2000/svg">
<g clip-path="url(#clip0)">
<path d="M15.2078 19.5298H2.29165C1.02749 19.5298 0 18.5115 0 17.2586V4.45732C0 3.20442 1.02749 2.18607 2.29165 2.18607H12.7079C13.0529 2.18607 13.3329 2.46356 13.3329 2.80549C13.3329 3.14741 13.0529 3.42491 12.7079 3.42491H2.29165C1.71748 3.42491 1.24996 3.88826 1.24996 4.45732V17.2586C1.24996 17.8276 1.71748 18.291 2.29165 18.291H15.2078C15.782 18.291 16.2495 17.8276 16.2495 17.2586V10.2385C16.2495 9.89661 16.5295 9.61911 16.8745 9.61911C17.2195 9.61911 17.4995 9.89661 17.4995 10.2385V17.2586C17.4995 18.5115 16.472 19.5298 15.2078 19.5298Z" fill="#1754F1"/>
<path d="M10.2079 12.5098C10.048 12.5098 9.88797 12.4495 9.76636 12.328L6.01647 8.61152C5.77234 8.36956 5.77234 7.97728 6.01647 7.73532C6.26061 7.49336 6.65641 7.49336 6.90054 7.73532L10.2088 11.014L18.9326 2.36786C19.1769 2.12575 19.5727 2.12575 19.8169 2.36786C20.061 2.60982 20.061 3.0021 19.8169 3.24407L10.6504 12.329C10.5279 12.4495 10.368 12.5098 10.2079 12.5098Z" fill="#1754F1"/>
</g>
<defs>
<clipPath id="clip0">
<rect width="20" height="19.8221" fill="white" transform="translate(0 0.946625)"/>
</clipPath>
</defs>
</svg>
