<svg width="19" height="19" viewBox="0 0 19 19" fill="none" xmlns="http://www.w3.org/2000/svg">
<path d="M10.5497 9.50004L18.7827 1.26703C19.0725 0.977173 19.0725 0.50722 18.7827 0.217396C18.4928 -0.0724282 18.0228 -0.0724653 17.733 0.217396L9.5 8.4504L1.26703 0.217396C0.977173 -0.0724653 0.50722 -0.0724653 0.217396 0.217396C-0.0724282 0.507257 -0.0724653 0.97721 0.217396 1.26703L8.45037 9.5L0.217396 17.733C-0.0724653 18.0229 -0.0724653 18.4928 0.217396 18.7827C0.362308 18.9276 0.552271 19 0.742233 19C0.932196 19 1.12212 18.9276 1.26707 18.7827L9.5 10.5497L17.733 18.7827C17.8779 18.9276 18.0678 19 18.2578 19C18.4478 19 18.6377 18.9276 18.7827 18.7827C19.0725 18.4928 19.0725 18.0228 18.7827 17.733L10.5497 9.50004Z" fill="#03174B" fill-opacity="0.6"/>
</svg>
