<svg width="47" height="41" viewBox="0 0 47 41" fill="none" xmlns="http://www.w3.org/2000/svg">
<path d="M14.7374 2.22038C5.33735 5.22038 -1.26265 15.0204 0.33735 23.6204C2.53735 35.2204 15.9374 42.8204 29.1374 39.8204C44.3374 36.4204 51.3374 21.9204 43.2374 10.4204C37.6374 2.52038 25.0374 -1.07962 14.7374 2.22038ZM30.4374 8.62038C34.0374 10.2204 39.4374 15.4204 38.5374 16.4204C38.3374 16.6204 36.6374 15.9204 34.7374 15.0204C29.3374 12.2204 19.0374 12.1204 13.3374 14.6204C10.6374 15.8204 8.33735 16.6204 8.13735 16.4204C7.23735 15.4204 12.6374 10.2204 16.2374 8.62038C21.4374 6.32038 25.2374 6.32038 30.4374 8.62038ZM25.6374 18.4204C26.1374 20.1204 23.0374 21.3204 21.6374 19.9204C21.0374 19.3204 20.9374 18.4204 21.3374 17.7204C22.2374 16.3204 25.0374 16.8204 25.6374 18.4204ZM18.6374 23.9204C20.1374 25.4204 20.1374 28.6204 18.5374 31.5204L17.2374 33.8204L13.8374 31.5204C8.93735 28.1204 7.83735 25.9204 10.2374 24.1204C12.6374 22.4204 17.0374 22.3204 18.6374 23.9204ZM35.9374 23.7204C38.6374 25.2204 38.3374 27.1204 34.7374 30.1204C30.9374 33.4204 29.1374 33.4204 27.6374 30.2204C25.1374 24.7204 30.2374 20.7204 35.9374 23.7204Z" fill="url(#paint0_linear)"/>
<path d="M42.1373 5.72039C44.3373 7.92039 46.3373 9.62039 46.5373 9.32039C47.1373 8.82039 40.0373 1.72039 38.9373 1.72039C38.4373 1.72039 39.8373 3.52039 42.1373 5.72039Z" fill="url(#paint1_linear)"/>
<path d="M42.1373 5.72039C44.3373 7.92039 46.3373 9.62039 46.5373 9.32039C47.1373 8.82039 40.0373 1.72039 38.9373 1.72039C38.4373 1.72039 39.8373 3.52039 42.1373 5.72039Z" fill="white"/>
<path d="M2.93734 35.3204C4.73734 37.3204 7.23734 39.3204 8.33734 39.9204C9.43734 40.5204 8.13734 38.9204 5.43734 36.3204C-0.462659 30.8204 -1.96266 30.2204 2.93734 35.3204Z" fill="url(#paint2_linear)"/>
<path d="M2.93734 35.3204C4.73734 37.3204 7.23734 39.3204 8.33734 39.9204C9.43734 40.5204 8.13734 38.9204 5.43734 36.3204C-0.462659 30.8204 -1.96266 30.2204 2.93734 35.3204Z" fill="white"/>
<defs>
<linearGradient id="paint0_linear" x1="11.5" y1="-1.00153" x2="45.3247" y2="34.4394" gradientUnits="userSpaceOnUse">
<stop stop-color="white" stop-opacity="0.97"/>
<stop offset="1" stop-color="white"/>
</linearGradient>
<linearGradient id="paint1_linear" x1="42.7047" y1="9.3548" x2="42.7047" y2="1.72039" gradientUnits="userSpaceOnUse">
<stop stop-color="#1754F1" stop-opacity="0.97"/>
<stop offset="1" stop-color="#16348A"/>
</linearGradient>
<linearGradient id="paint2_linear" x1="4.36423" y1="40.0463" x2="4.36423" y2="31.8228" gradientUnits="userSpaceOnUse">
<stop stop-color="#1754F1" stop-opacity="0.97"/>
<stop offset="1" stop-color="#16348A"/>
</linearGradient>
</defs>
</svg>
