<svg width="16" height="17" viewBox="0 0 16 17" fill="none" xmlns="http://www.w3.org/2000/svg">
<path d="M15.5477 11.8527L13.3149 9.59891C12.5174 8.79397 11.1618 9.11598 10.8428 10.1624C10.6036 10.8868 9.80613 11.2893 9.08843 11.1283C7.49353 10.7258 5.34043 8.63298 4.9417 6.94261C4.70247 6.21813 5.18094 5.41319 5.89864 5.17174C6.93532 4.84976 7.2543 3.48137 6.45685 2.67643L4.224 0.422594C3.58604 -0.140865 2.62911 -0.140865 2.0709 0.422594L0.555746 1.95198C-0.959403 3.56186 0.715236 7.82804 4.46324 11.6113C8.21124 15.3945 12.4377 17.1654 14.0326 15.5555L15.5477 14.0261C16.106 13.3821 16.106 12.4162 15.5477 11.8527Z" fill="white"/>
</svg>
